<?xml version="1.0" encoding="UTF-8" standalone="no"?>
<!DOCTYPE svg PUBLIC "-//W3C//DTD SVG 1.1//EN"
 "http://www.w3.org/Graphics/SVG/1.1/DTD/svg11.dtd">
<!-- Generated by graphviz version 2.26.3 (20100126.1600)
 -->
<!-- Title: G Pages: 1 -->
<svg width="822pt" height="976pt"
 viewBox="0.00 0.00 822.00 976.00" xmlns="http://www.w3.org/2000/svg" xmlns:xlink="http://www.w3.org/1999/xlink">
<g id="graph1" class="graph" transform="scale(1 1) rotate(0) translate(4 972)">
<title>G</title>
<polygon fill="white" stroke="white" points="-4,5 -4,-972 819,-972 819,5 -4,5"/>
<!-- Node1 -->
<g id="node1" class="node"><title>Node1</title>
<polygon fill="#bfbfbf" stroke="black" points="0.5,-507.5 0.5,-528.5 41.5,-528.5 41.5,-507.5 0.5,-507.5"/>
<text text-anchor="middle" x="21" y="-515.5" font-family="FreeSans" font-size="10.00">main</text>
</g>
<!-- Node2 -->
<g id="node3" class="node"><title>Node2</title>
<a xlink:href="$setup_8c.html#a4ea70683a1cb19607d5b08038252c986" xlink:title="createSerialConnection">
<polygon fill="white" stroke="black" points="78,-716.5 78,-737.5 206,-737.5 206,-716.5 78,-716.5"/>
<text text-anchor="middle" x="142" y="-724.5" font-family="FreeSans" font-size="10.00">createSerialConnection</text>
</a>
</g>
<!-- Node1&#45;&gt;Node2 -->
<g id="edge2" class="edge"><title>Node1&#45;&gt;Node2</title>
<path fill="none" stroke="midnightblue" d="M22.0977,-528.677C25.5192,-557.252 38.2604,-636.71 78,-687 85.9333,-697.039 97.1273,-705.24 107.94,-711.544"/>
<polygon fill="midnightblue" stroke="midnightblue" points="106.395,-714.688 116.852,-716.392 109.74,-708.539 106.395,-714.688"/>
</g>
<!-- Node24 -->
<g id="node47" class="node"><title>Node24</title>
<a xlink:href="$setup_8c.html#a563a0accaf8053d62c45f2827a943491" xlink:title="createSfConnection">
<polygon fill="white" stroke="black" points="86.5,-656.5 86.5,-677.5 197.5,-677.5 197.5,-656.5 86.5,-656.5"/>
<text text-anchor="middle" x="142" y="-664.5" font-family="FreeSans" font-size="10.00">createSfConnection</text>
</a>
</g>
<!-- Node1&#45;&gt;Node24 -->
<g id="edge46" class="edge"><title>Node1&#45;&gt;Node24</title>
<path fill="none" stroke="midnightblue" d="M29.702,-528.716C50.1088,-553.845 101.25,-616.821 126.873,-648.373"/>
<polygon fill="midnightblue" stroke="midnightblue" points="124.356,-650.825 133.377,-656.381 129.79,-646.412 124.356,-650.825"/>
</g>
<!-- Node32 -->
<g id="node67" class="node"><title>Node32</title>
<a xlink:href="$gateway_8c.html#ab4019da15a03ed207b8272b8b15140c7" xlink:title="startGateway">
<polygon fill="white" stroke="black" points="102,-358.5 102,-379.5 182,-379.5 182,-358.5 102,-358.5"/>
<text text-anchor="middle" x="142" y="-366.5" font-family="FreeSans" font-size="10.00">startGateway</text>
</a>
</g>
<!-- Node1&#45;&gt;Node32 -->
<g id="edge70" class="edge"><title>Node1&#45;&gt;Node32</title>
<path fill="none" stroke="midnightblue" d="M29.702,-507.284C50.1088,-482.155 101.25,-419.179 126.873,-387.627"/>
<polygon fill="midnightblue" stroke="midnightblue" points="129.79,-389.588 133.377,-379.619 124.356,-385.175 129.79,-389.588"/>
</g>
<!-- Node50 -->
<g id="node106" class="node"><title>Node50</title>
<a xlink:href="$client_8c.html#a1ad940455be56209415d328d78622715" xlink:title="usage">
<polygon fill="white" stroke="black" points="119,-318.5 119,-339.5 165,-339.5 165,-318.5 119,-318.5"/>
<text text-anchor="middle" x="142" y="-326.5" font-family="FreeSans" font-size="10.00">usage</text>
</a>
</g>
<!-- Node1&#45;&gt;Node50 -->
<g id="edge112" class="edge"><title>Node1&#45;&gt;Node50</title>
<path fill="none" stroke="midnightblue" d="M21.4035,-507.153C23.1027,-477.452 31.951,-394.028 78,-349 86.3479,-340.837 97.9783,-336.001 109.038,-333.137"/>
<polygon fill="midnightblue" stroke="midnightblue" points="109.877,-336.537 118.923,-331.023 108.413,-329.691 109.877,-336.537"/>
</g>
<!-- Node3 -->
<g id="node5" class="node"><title>Node3</title>
<a xlink:href="$reconstruct_8c.html#ad7226d57b1b8ac18109aac28cc11764e" xlink:title="initReconstruction">
<polygon fill="white" stroke="black" points="248,-816.5 248,-837.5 350,-837.5 350,-816.5 248,-816.5"/>
<text text-anchor="middle" x="299" y="-824.5" font-family="FreeSans" font-size="10.00">initReconstruction</text>
</a>
</g>
<!-- Node2&#45;&gt;Node3 -->
<g id="edge4" class="edge"><title>Node2&#45;&gt;Node3</title>
<path fill="none" stroke="midnightblue" d="M158.505,-737.513C185.995,-755.022 241.333,-790.269 273.75,-810.917"/>
<polygon fill="midnightblue" stroke="midnightblue" points="271.929,-813.907 282.244,-816.327 275.689,-808.003 271.929,-813.907"/>
</g>
<!-- Node6 -->
<g id="node11" class="node"><title>Node6</title>
<a xlink:href="$motecomm_8c.html#a83beb20069e26e41323fe2870d1fdd7d" xlink:title="openMcpConnection">
<polygon fill="white" stroke="black" points="242,-756.5 242,-777.5 356,-777.5 356,-756.5 242,-756.5"/>
<text text-anchor="middle" x="299" y="-764.5" font-family="FreeSans" font-size="10.00">openMcpConnection</text>
</a>
</g>
<!-- Node2&#45;&gt;Node6 -->
<g id="edge10" class="edge"><title>Node2&#45;&gt;Node6</title>
<path fill="none" stroke="midnightblue" d="M183.25,-737.51C203.093,-742.565 227.07,-748.674 248.043,-754.017"/>
<polygon fill="midnightblue" stroke="midnightblue" points="247.199,-757.414 257.753,-756.491 248.927,-750.631 247.199,-757.414"/>
</g>
<!-- Node11 -->
<g id="node21" class="node"><title>Node11</title>
<a xlink:href="$setup_8c.html#a0b51904bb056e610c6eaf6c66e54bc7b" xlink:title="reconstructDone">
<polygon fill="white" stroke="black" points="250.5,-676.5 250.5,-697.5 347.5,-697.5 347.5,-676.5 250.5,-676.5"/>
<text text-anchor="middle" x="299" y="-684.5" font-family="FreeSans" font-size="10.00">reconstructDone</text>
</a>
</g>
<!-- Node2&#45;&gt;Node11 -->
<g id="edge20" class="edge"><title>Node2&#45;&gt;Node11</title>
<path fill="none" stroke="midnightblue" d="M183.25,-716.49C203.093,-711.435 227.07,-705.326 248.043,-699.983"/>
<polygon fill="midnightblue" stroke="midnightblue" points="248.927,-703.369 257.753,-697.509 247.199,-696.586 248.927,-703.369"/>
</g>
<!-- Node15 -->
<g id="node29" class="node"><title>Node15</title>
<a xlink:href="$setup_8c.html#a48112857f039c3f7b7fc5e413c855de9" xlink:title="serialProcess">
<polygon fill="white" stroke="black" points="259,-716.5 259,-737.5 339,-737.5 339,-716.5 259,-716.5"/>
<text text-anchor="middle" x="299" y="-724.5" font-family="FreeSans" font-size="10.00">serialProcess</text>
</a>
</g>
<!-- Node2&#45;&gt;Node15 -->
<g id="edge28" class="edge"><title>Node2&#45;&gt;Node15</title>
<path fill="none" stroke="midnightblue" d="M206.311,-727C220.482,-727 235.291,-727 248.808,-727"/>
<polygon fill="midnightblue" stroke="midnightblue" points="248.86,-730.5 258.86,-727 248.86,-723.5 248.86,-730.5"/>
</g>
<!-- Node4 -->
<g id="node7" class="node"><title>Node4</title>
<a xlink:href="$reconstruct_8c.html#ac6667c1ff4d1a59564b89b992121add7" xlink:title="fake_reconstruct_done">
<polygon fill="white" stroke="black" points="392,-866.5 392,-887.5 518,-887.5 518,-866.5 392,-866.5"/>
<text text-anchor="middle" x="455" y="-874.5" font-family="FreeSans" font-size="10.00">fake_reconstruct_done</text>
</a>
</g>
<!-- Node3&#45;&gt;Node4 -->
<g id="edge6" class="edge"><title>Node3&#45;&gt;Node4</title>
<path fill="none" stroke="midnightblue" d="M331.698,-837.589C349.519,-843.349 371.964,-850.588 392,-857 398.462,-859.068 405.3,-861.248 411.995,-863.377"/>
<polygon fill="midnightblue" stroke="midnightblue" points="411.051,-866.749 421.641,-866.442 413.171,-860.078 411.051,-866.749"/>
</g>
<!-- Node5 -->
<g id="node9" class="node"><title>Node5</title>
<a xlink:href="$reconstruct_8c.html#a3b75d1d9dcd1c4e881196d30c1291755" xlink:title="init_temp_packet">
<polygon fill="white" stroke="black" points="405.5,-826.5 405.5,-847.5 504.5,-847.5 504.5,-826.5 405.5,-826.5"/>
<text text-anchor="middle" x="455" y="-834.5" font-family="FreeSans" font-size="10.00">init_temp_packet</text>
</a>
</g>
<!-- Node3&#45;&gt;Node5 -->
<g id="edge8" class="edge"><title>Node3&#45;&gt;Node5</title>
<path fill="none" stroke="midnightblue" d="M350.08,-830.274C364.52,-831.2 380.363,-832.216 395.263,-833.171"/>
<polygon fill="midnightblue" stroke="midnightblue" points="395.196,-836.674 405.399,-833.82 395.644,-829.688 395.196,-836.674"/>
</g>
<!-- Node7 -->
<g id="node13" class="node"><title>Node7</title>
<a xlink:href="$motecomm_8c.html#aaf4f40c616b1a670e0ba863a661c6b0e" xlink:title="motecomm">
<polygon fill="white" stroke="black" points="418.5,-716.5 418.5,-737.5 491.5,-737.5 491.5,-716.5 418.5,-716.5"/>
<text text-anchor="middle" x="455" y="-724.5" font-family="FreeSans" font-size="10.00">motecomm</text>
</a>
</g>
<!-- Node6&#45;&gt;Node7 -->
<g id="edge12" class="edge"><title>Node6&#45;&gt;Node7</title>
<path fill="none" stroke="midnightblue" d="M339.987,-756.49C361.046,-751.091 386.79,-744.49 408.578,-738.903"/>
<polygon fill="midnightblue" stroke="midnightblue" points="409.463,-742.29 418.28,-736.415 407.724,-735.509 409.463,-742.29"/>
</g>
<!-- Node8 -->
<g id="node15" class="node"><title>Node8</title>
<a xlink:href="$motecomm_8c.html#a310c24cd5352e7da8875682607699b8c" xlink:title="_motecomm_t_read">
<polygon fill="white" stroke="black" points="570,-666.5 570,-687.5 684,-687.5 684,-666.5 570,-666.5"/>
<text text-anchor="middle" x="627" y="-674.5" font-family="FreeSans" font-size="10.00">_motecomm_t_read</text>
</a>
</g>
<!-- Node7&#45;&gt;Node8 -->
<g id="edge14" class="edge"><title>Node7&#45;&gt;Node8</title>
<path fill="none" stroke="midnightblue" d="M489.295,-716.36C508.321,-710.52 532.43,-703.222 554,-697 561.635,-694.798 569.736,-692.52 577.657,-690.325"/>
<polygon fill="midnightblue" stroke="midnightblue" points="578.833,-693.632 587.545,-687.602 576.974,-686.883 578.833,-693.632"/>
</g>
<!-- Node9 -->
<g id="node17" class="node"><title>Node9</title>
<a xlink:href="$motecomm_8c.html#a495c790d5827628f086ae1103d573a98" xlink:title="_motecomm_t_send">
<polygon fill="white" stroke="black" points="569,-626.5 569,-647.5 685,-647.5 685,-626.5 569,-626.5"/>
<text text-anchor="middle" x="627" y="-634.5" font-family="FreeSans" font-size="10.00">_motecomm_t_send</text>
</a>
</g>
<!-- Node7&#45;&gt;Node9 -->
<g id="edge16" class="edge"><title>Node7&#45;&gt;Node9</title>
<path fill="none" stroke="midnightblue" d="M491.532,-719.707C500.729,-716.754 510.195,-712.656 518,-707 540.173,-690.932 531.51,-672.621 554,-657 556.752,-655.088 559.68,-653.359 562.722,-651.795"/>
<polygon fill="midnightblue" stroke="midnightblue" points="564.432,-654.864 572.126,-647.58 561.569,-648.476 564.432,-654.864"/>
</g>
<!-- Node10 -->
<g id="node19" class="node"><title>Node10</title>
<a xlink:href="$motecomm_8c.html#a69da3d5f480cc8d8944b154ffafd130d" xlink:title="_motecomm_t_setHandler">
<polygon fill="white" stroke="black" points="554.5,-706.5 554.5,-727.5 699.5,-727.5 699.5,-706.5 554.5,-706.5"/>
<text text-anchor="middle" x="627" y="-714.5" font-family="FreeSans" font-size="10.00">_motecomm_t_setHandler</text>
</a>
</g>
<!-- Node7&#45;&gt;Node10 -->
<g id="edge18" class="edge"><title>Node7&#45;&gt;Node10</title>
<path fill="none" stroke="midnightblue" d="M491.898,-724.855C507.306,-723.959 525.877,-722.879 544.249,-721.811"/>
<polygon fill="midnightblue" stroke="midnightblue" points="544.634,-725.295 554.414,-721.22 544.228,-718.307 544.634,-725.295"/>
</g>
<!-- Node12 -->
<g id="node23" class="node"><title>Node12</title>
<a xlink:href="$tunnel_8c.html#a40e4b1e6157d871bf6b09a8b1c4273e9" xlink:title="tunWriteNoQueue">
<polygon fill="white" stroke="black" points="404.5,-676.5 404.5,-697.5 505.5,-697.5 505.5,-676.5 404.5,-676.5"/>
<text text-anchor="middle" x="455" y="-684.5" font-family="FreeSans" font-size="10.00">tunWriteNoQueue</text>
</a>
</g>
<!-- Node11&#45;&gt;Node12 -->
<g id="edge22" class="edge"><title>Node11&#45;&gt;Node12</title>
<path fill="none" stroke="midnightblue" d="M347.504,-687C362.325,-687 378.812,-687 394.334,-687"/>
<polygon fill="midnightblue" stroke="midnightblue" points="394.368,-690.5 404.368,-687 394.368,-683.5 394.368,-690.5"/>
</g>
<!-- Node13 -->
<g id="node25" class="node"><title>Node13</title>
<a xlink:href="$tunnel_8c.html#a7467a981fd9e9ab77610f0877e60fe68" xlink:title="getFd">
<polygon fill="white" stroke="black" points="605,-397.5 605,-418.5 649,-418.5 649,-397.5 605,-397.5"/>
<text text-anchor="middle" x="627" y="-405.5" font-family="FreeSans" font-size="10.00">getFd</text>
</a>
</g>
<!-- Node12&#45;&gt;Node13 -->
<g id="edge24" class="edge"><title>Node12&#45;&gt;Node13</title>
<path fill="none" stroke="midnightblue" d="M503.881,-676.426C509.031,-673.923 513.881,-670.828 518,-667 549.556,-637.671 537.457,-616.778 554,-577 576.494,-522.913 604.197,-459.648 618.121,-428.07"/>
<polygon fill="midnightblue" stroke="midnightblue" points="621.449,-429.196 622.287,-418.634 615.046,-426.368 621.449,-429.196"/>
</g>
<!-- Node14 -->
<g id="node27" class="node"><title>Node14</title>
<a xlink:href="$tunnel_8c.html#a85ec0d42a4c58790999d227d5efa60cc" xlink:title="tun_write">
<polygon fill="white" stroke="black" points="597,-586.5 597,-607.5 657,-607.5 657,-586.5 597,-586.5"/>
<text text-anchor="middle" x="627" y="-594.5" font-family="FreeSans" font-size="10.00">tun_write</text>
</a>
</g>
<!-- Node12&#45;&gt;Node14 -->
<g id="edge26" class="edge"><title>Node12&#45;&gt;Node14</title>
<path fill="none" stroke="midnightblue" d="M500.42,-676.491C506.642,-673.959 512.703,-670.838 518,-667 540.173,-650.932 531.51,-632.621 554,-617 563.766,-610.216 575.75,-605.729 587.162,-602.763"/>
<polygon fill="midnightblue" stroke="midnightblue" points="588.002,-606.162 596.975,-600.529 586.447,-599.337 588.002,-606.162"/>
</g>
<!-- Node16 -->
<g id="node31" class="node"><title>Node16</title>
<a xlink:href="$reconstruct_8c.html#a6a2914191555afd4318e8ae6d07ba6ad" xlink:title="addChunk">
<polygon fill="white" stroke="black" points="422.5,-786.5 422.5,-807.5 487.5,-807.5 487.5,-786.5 422.5,-786.5"/>
<text text-anchor="middle" x="455" y="-794.5" font-family="FreeSans" font-size="10.00">addChunk</text>
</a>
</g>
<!-- Node15&#45;&gt;Node16 -->
<g id="edge30" class="edge"><title>Node15&#45;&gt;Node16</title>
<path fill="none" stroke="midnightblue" d="M331.535,-737.595C339.608,-740.448 348.184,-743.672 356,-747 380.512,-757.438 407.446,-771.198 427.025,-781.641"/>
<polygon fill="midnightblue" stroke="midnightblue" points="425.537,-784.815 436.002,-786.471 428.854,-778.651 425.537,-784.815"/>
</g>
<!-- Node17 -->
<g id="node33" class="node"><title>Node17</title>
<a xlink:href="$reconstruct_8c.html#ae3b535f4199fcb58a6b75649a0c5e4ca" xlink:title="check_if_same_chunk">
<polygon fill="white" stroke="black" points="566.5,-746.5 566.5,-767.5 687.5,-767.5 687.5,-746.5 566.5,-746.5"/>
<text text-anchor="middle" x="627" y="-754.5" font-family="FreeSans" font-size="10.00">check_if_same_chunk</text>
</a>
</g>
<!-- Node16&#45;&gt;Node17 -->
<g id="edge32" class="edge"><title>Node16&#45;&gt;Node17</title>
<path fill="none" stroke="midnightblue" d="M487.757,-789.382C511.455,-783.871 544.047,-776.291 571.741,-769.851"/>
<polygon fill="midnightblue" stroke="midnightblue" points="572.75,-773.21 581.697,-767.535 571.165,-766.392 572.75,-773.21"/>
</g>
<!-- Node18 -->
<g id="node35" class="node"><title>Node18</title>
<a xlink:href="$structs_8c.html#ae1fef1f5f3d55c031757fcbfe792e65f" xlink:title="getOrdNo">
<polygon fill="white" stroke="red" points="595.5,-946.5 595.5,-967.5 658.5,-967.5 658.5,-946.5 595.5,-946.5"/>
<text text-anchor="middle" x="627" y="-954.5" font-family="FreeSans" font-size="10.00">getOrdNo</text>
</a>
</g>
<!-- Node16&#45;&gt;Node18 -->
<g id="edge34" class="edge"><title>Node16&#45;&gt;Node18</title>
<path fill="none" stroke="midnightblue" d="M487.704,-801.118C498.577,-803.98 509.951,-808.821 518,-817 557.058,-856.685 514.157,-898.103 554,-937 562.436,-945.236 573.925,-950.155 585.292,-953.072"/>
<polygon fill="midnightblue" stroke="midnightblue" points="584.662,-956.516 595.168,-955.152 586.104,-949.666 584.662,-956.516"/>
</g>
<!-- Node19 -->
<g id="node37" class="node"><title>Node19</title>
<a xlink:href="$structs_8c.html#a7935635f433c6450db299264b133340e" xlink:title="getParts">
<polygon fill="white" stroke="red" points="598.5,-906.5 598.5,-927.5 655.5,-927.5 655.5,-906.5 598.5,-906.5"/>
<text text-anchor="middle" x="627" y="-914.5" font-family="FreeSans" font-size="10.00">getParts</text>
</a>
</g>
<!-- Node16&#45;&gt;Node19 -->
<g id="edge36" class="edge"><title>Node16&#45;&gt;Node19</title>
<path fill="none" stroke="midnightblue" d="M487.775,-801.903C498.402,-804.836 509.602,-809.52 518,-817 547.115,-842.933 524.373,-871.654 554,-897 563.595,-905.209 576.273,-910.073 588.366,-912.947"/>
<polygon fill="midnightblue" stroke="midnightblue" points="587.817,-916.406 598.307,-914.922 589.182,-909.54 587.817,-916.406"/>
</g>
<!-- Node20 -->
<g id="node39" class="node"><title>Node20</title>
<a xlink:href="$structs_8c.html#af59f9e871986e4044103ce4ab5cb3d27" xlink:title="getSeqNo">
<polygon fill="white" stroke="red" points="594.5,-866.5 594.5,-887.5 659.5,-887.5 659.5,-866.5 594.5,-866.5"/>
<text text-anchor="middle" x="627" y="-874.5" font-family="FreeSans" font-size="10.00">getSeqNo</text>
</a>
</g>
<!-- Node16&#45;&gt;Node20 -->
<g id="edge38" class="edge"><title>Node16&#45;&gt;Node20</title>
<path fill="none" stroke="midnightblue" d="M487.54,-803.772C497.8,-806.815 508.838,-811.092 518,-817 538.101,-829.961 533.643,-844.444 554,-857 563.238,-862.698 574.115,-866.802 584.611,-869.746"/>
<polygon fill="midnightblue" stroke="midnightblue" points="583.94,-873.186 594.492,-872.228 585.646,-866.397 583.94,-873.186"/>
</g>
<!-- Node21 -->
<g id="node41" class="node"><title>Node21</title>
<a xlink:href="$structs_8c.html#a08857c21f64102f344d781b414651cf8" xlink:title="getSize">
<polygon fill="white" stroke="red" points="600.5,-826.5 600.5,-847.5 653.5,-847.5 653.5,-826.5 600.5,-826.5"/>
<text text-anchor="middle" x="627" y="-834.5" font-family="FreeSans" font-size="10.00">getSize</text>
</a>
</g>
<!-- Node16&#45;&gt;Node21 -->
<g id="edge40" class="edge"><title>Node16&#45;&gt;Node21</title>
<path fill="none" stroke="midnightblue" d="M487.757,-804.618C517.093,-811.44 560.056,-821.432 590.487,-828.509"/>
<polygon fill="midnightblue" stroke="midnightblue" points="589.757,-831.932 600.289,-830.788 591.342,-825.114 589.757,-831.932"/>
</g>
<!-- Node22 -->
<g id="node43" class="node"><title>Node22</title>
<a xlink:href="$reconstruct_8c.html#afbd6b8395a2ab0c3242472c8fc3010c7" xlink:title="send_if_completed">
<polygon fill="white" stroke="red" points="573.5,-786.5 573.5,-807.5 680.5,-807.5 680.5,-786.5 573.5,-786.5"/>
<text text-anchor="middle" x="627" y="-794.5" font-family="FreeSans" font-size="10.00">send_if_completed</text>
</a>
</g>
<!-- Node16&#45;&gt;Node22 -->
<g id="edge42" class="edge"><title>Node16&#45;&gt;Node22</title>
<path fill="none" stroke="midnightblue" d="M487.757,-797C509.096,-797 537.647,-797 563.339,-797"/>
<polygon fill="midnightblue" stroke="midnightblue" points="563.396,-800.5 573.396,-797 563.396,-793.5 563.396,-800.5"/>
</g>
<!-- Node23 -->
<g id="node45" class="node"><title>Node23</title>
<a xlink:href="$structs_8c.html#a20418fd64edd42e9313133bf6a519796" xlink:title="copyPayload">
<polygon fill="white" stroke="black" points="736.5,-412.5 736.5,-433.5 813.5,-433.5 813.5,-412.5 736.5,-412.5"/>
<text text-anchor="middle" x="775" y="-420.5" font-family="FreeSans" font-size="10.00">copyPayload</text>
</a>
</g>
<!-- Node22&#45;&gt;Node23 -->
<g id="edge44" class="edge"><title>Node22&#45;&gt;Node23</title>
<path fill="none" stroke="midnightblue" d="M680.705,-789.718C687.936,-786.743 694.681,-782.641 700,-777 746.244,-727.961 767.659,-512.405 773.377,-443.946"/>
<polygon fill="midnightblue" stroke="midnightblue" points="776.896,-443.852 774.214,-433.602 769.919,-443.287 776.896,-443.852"/>
</g>
<!-- Node24&#45;&gt;Node3 -->
<g id="edge48" class="edge"><title>Node24&#45;&gt;Node3</title>
<path fill="none" stroke="midnightblue" d="M165.729,-677.523C178.972,-684.364 194.972,-694.364 206,-707 231.637,-736.376 217.155,-756.951 242,-787 249.726,-796.345 260.148,-804.507 269.967,-810.979"/>
<polygon fill="midnightblue" stroke="midnightblue" points="268.382,-814.115 278.72,-816.433 272.083,-808.174 268.382,-814.115"/>
</g>
<!-- Node24&#45;&gt;Node7 -->
<g id="edge50" class="edge"><title>Node24&#45;&gt;Node7</title>
<path fill="none" stroke="midnightblue" d="M188.924,-656.427C233.864,-648.68 302.546,-643.194 356,-667 377.849,-676.731 371.899,-694.039 392,-707 397.066,-710.267 402.706,-713.035 408.471,-715.371"/>
<polygon fill="midnightblue" stroke="midnightblue" points="407.617,-718.785 418.211,-718.908 410.006,-712.205 407.617,-718.785"/>
</g>
<!-- Node24&#45;&gt;Node11 -->
<g id="edge52" class="edge"><title>Node24&#45;&gt;Node11</title>
<path fill="none" stroke="midnightblue" d="M197.794,-674.108C211.624,-675.869 226.483,-677.762 240.441,-679.54"/>
<polygon fill="midnightblue" stroke="midnightblue" points="240.056,-683.019 250.418,-680.811 240.94,-676.075 240.056,-683.019"/>
</g>
<!-- Node24&#45;&gt;Node15 -->
<g id="edge68" class="edge"><title>Node24&#45;&gt;Node15</title>
<path fill="none" stroke="midnightblue" d="M167.78,-677.667C187.905,-685.907 216.615,-697.475 242,-707 247.278,-708.98 252.852,-711.011 258.365,-712.983"/>
<polygon fill="midnightblue" stroke="midnightblue" points="257.552,-716.408 268.147,-716.447 259.889,-709.809 257.552,-716.408"/>
</g>
<!-- Node25 -->
<g id="node52" class="node"><title>Node25</title>
<a xlink:href="$motecomm_8c.html#adfea2e89ed9dff31d45e02e38535025e" xlink:title="serialforwardif">
<polygon fill="white" stroke="black" points="257.5,-556.5 257.5,-577.5 340.5,-577.5 340.5,-556.5 257.5,-556.5"/>
<text text-anchor="middle" x="299" y="-564.5" font-family="FreeSans" font-size="10.00">serialforwardif</text>
</a>
</g>
<!-- Node24&#45;&gt;Node25 -->
<g id="edge54" class="edge"><title>Node24&#45;&gt;Node25</title>
<path fill="none" stroke="midnightblue" d="M158.505,-656.487C185.995,-638.978 241.333,-603.731 273.75,-583.083"/>
<polygon fill="midnightblue" stroke="midnightblue" points="275.689,-585.997 282.244,-577.673 271.929,-580.093 275.689,-585.997"/>
</g>
<!-- Node26 -->
<g id="node54" class="node"><title>Node26</title>
<a xlink:href="$motecomm_8c.html#ae92667384dab2d39b670e52fb1fc3a5f" xlink:title="_serialforwardif_t_ditch">
<polygon fill="white" stroke="black" points="392.5,-556.5 392.5,-577.5 517.5,-577.5 517.5,-556.5 392.5,-556.5"/>
<text text-anchor="middle" x="455" y="-564.5" font-family="FreeSans" font-size="10.00">_serialforwardif_t_ditch</text>
</a>
</g>
<!-- Node25&#45;&gt;Node26 -->
<g id="edge56" class="edge"><title>Node25&#45;&gt;Node26</title>
<path fill="none" stroke="midnightblue" d="M340.805,-567C353.514,-567 367.871,-567 382.008,-567"/>
<polygon fill="midnightblue" stroke="midnightblue" points="382.235,-570.5 392.235,-567 382.235,-563.5 382.235,-570.5"/>
</g>
<!-- Node27 -->
<g id="node56" class="node"><title>Node27</title>
<a xlink:href="$motecomm_8c.html#a8cad518a67b452360a2cfbcddd0a3465" xlink:title="_serialforwardif_t_dtor">
<polygon fill="white" stroke="black" points="394,-516.5 394,-537.5 516,-537.5 516,-516.5 394,-516.5"/>
<text text-anchor="middle" x="455" y="-524.5" font-family="FreeSans" font-size="10.00">_serialforwardif_t_dtor</text>
</a>
</g>
<!-- Node25&#45;&gt;Node27 -->
<g id="edge58" class="edge"><title>Node25&#45;&gt;Node27</title>
<path fill="none" stroke="midnightblue" d="M339.987,-556.49C359.615,-551.458 383.313,-545.381 404.085,-540.055"/>
<polygon fill="midnightblue" stroke="midnightblue" points="405.199,-543.383 414.016,-537.509 403.46,-536.602 405.199,-543.383"/>
</g>
<!-- Node28 -->
<g id="node58" class="node"><title>Node28</title>
<a xlink:href="$motecomm_8c.html#a03cd6d36ee0d067d7d76b562fd2a017a" xlink:title="_serialforwardif_t_fd">
<polygon fill="white" stroke="black" points="399.5,-476.5 399.5,-497.5 510.5,-497.5 510.5,-476.5 399.5,-476.5"/>
<text text-anchor="middle" x="455" y="-484.5" font-family="FreeSans" font-size="10.00">_serialforwardif_t_fd</text>
</a>
</g>
<!-- Node25&#45;&gt;Node28 -->
<g id="edge60" class="edge"><title>Node25&#45;&gt;Node28</title>
<path fill="none" stroke="midnightblue" d="M312.811,-556.408C330.397,-543.326 362.102,-521.082 392,-507 396.618,-504.825 401.534,-502.802 406.504,-500.943"/>
<polygon fill="midnightblue" stroke="midnightblue" points="407.795,-504.199 416.065,-497.577 405.47,-497.597 407.795,-504.199"/>
</g>
<!-- Node29 -->
<g id="node60" class="node"><title>Node29</title>
<a xlink:href="$motecomm_8c.html#a78ccec033dafa735267805d3eaa37c99" xlink:title="_serialforwardif_t_open">
<polygon fill="white" stroke="black" points="392,-436.5 392,-457.5 518,-457.5 518,-436.5 392,-436.5"/>
<text text-anchor="middle" x="455" y="-444.5" font-family="FreeSans" font-size="10.00">_serialforwardif_t_open</text>
</a>
</g>
<!-- Node25&#45;&gt;Node29 -->
<g id="edge62" class="edge"><title>Node25&#45;&gt;Node29</title>
<path fill="none" stroke="midnightblue" d="M306.101,-556.26C320.114,-535.887 353.342,-491.481 392,-467 395.142,-465.01 398.498,-463.204 401.963,-461.566"/>
<polygon fill="midnightblue" stroke="midnightblue" points="403.469,-464.73 411.32,-457.616 400.746,-458.281 403.469,-464.73"/>
</g>
<!-- Node30 -->
<g id="node62" class="node"><title>Node30</title>
<a xlink:href="$motecomm_8c.html#a92190038ad2d206a4807c5b97c7d365c" xlink:title="_serialforwardif_t_read">
<polygon fill="white" stroke="black" points="393,-636.5 393,-657.5 517,-657.5 517,-636.5 393,-636.5"/>
<text text-anchor="middle" x="455" y="-644.5" font-family="FreeSans" font-size="10.00">_serialforwardif_t_read</text>
</a>
</g>
<!-- Node25&#45;&gt;Node30 -->
<g id="edge64" class="edge"><title>Node25&#45;&gt;Node30</title>
<path fill="none" stroke="midnightblue" d="M312.811,-577.592C330.397,-590.674 362.102,-612.918 392,-627 396.618,-629.175 401.534,-631.198 406.504,-633.057"/>
<polygon fill="midnightblue" stroke="midnightblue" points="405.47,-636.403 416.065,-636.423 407.795,-629.801 405.47,-636.403"/>
</g>
<!-- Node31 -->
<g id="node64" class="node"><title>Node31</title>
<a xlink:href="$motecomm_8c.html#a6902f55e0595ec4bdfbffee2d0ed6ce7" xlink:title="_serialforwardif_t_send">
<polygon fill="white" stroke="black" points="392.5,-596.5 392.5,-617.5 517.5,-617.5 517.5,-596.5 392.5,-596.5"/>
<text text-anchor="middle" x="455" y="-604.5" font-family="FreeSans" font-size="10.00">_serialforwardif_t_send</text>
</a>
</g>
<!-- Node25&#45;&gt;Node31 -->
<g id="edge66" class="edge"><title>Node25&#45;&gt;Node31</title>
<path fill="none" stroke="midnightblue" d="M339.987,-577.51C359.615,-582.542 383.313,-588.619 404.085,-593.945"/>
<polygon fill="midnightblue" stroke="midnightblue" points="403.46,-597.398 414.016,-596.491 405.199,-590.617 403.46,-597.398"/>
</g>
<!-- Node32&#45;&gt;Node13 -->
<g id="edge78" class="edge"><title>Node32&#45;&gt;Node13</title>
<path fill="none" stroke="midnightblue" d="M182.163,-378.445C200.335,-382.353 222.145,-386.538 242,-389 371.911,-405.107 528.075,-407.692 594.523,-408.016"/>
<polygon fill="midnightblue" stroke="midnightblue" points="594.754,-411.517 604.766,-408.051 594.778,-404.517 594.754,-411.517"/>
</g>
<!-- Node33 -->
<g id="node69" class="node"><title>Node33</title>
<a xlink:href="$glue_8c.html#a16de847c0a894d8bf2a9eb0acce6ffef" xlink:title="fdglue">
<polygon fill="white" stroke="black" points="276,-278.5 276,-299.5 322,-299.5 322,-278.5 276,-278.5"/>
<text text-anchor="middle" x="299" y="-286.5" font-family="FreeSans" font-size="10.00">fdglue</text>
</a>
</g>
<!-- Node32&#45;&gt;Node33 -->
<g id="edge72" class="edge"><title>Node32&#45;&gt;Node33</title>
<path fill="none" stroke="midnightblue" d="M182.055,-360.101C190.343,-357.285 198.75,-353.652 206,-349 226.131,-336.085 222.096,-322.261 242,-309 249.339,-304.11 258.008,-300.275 266.34,-297.329"/>
<polygon fill="midnightblue" stroke="midnightblue" points="267.416,-300.659 275.867,-294.269 265.275,-293.994 267.416,-300.659"/>
</g>
<!-- Node36 -->
<g id="node76" class="node"><title>Node36</title>
<a xlink:href="$setup_8c.html#a56d76681f8e82c8d8be870726ce0eebd" xlink:title="serialReceive">
<polygon fill="white" stroke="black" points="259.5,-436.5 259.5,-457.5 338.5,-457.5 338.5,-436.5 259.5,-436.5"/>
<text text-anchor="middle" x="299" y="-444.5" font-family="FreeSans" font-size="10.00">serialReceive</text>
</a>
</g>
<!-- Node32&#45;&gt;Node36 -->
<g id="edge80" class="edge"><title>Node32&#45;&gt;Node36</title>
<path fill="none" stroke="midnightblue" d="M160.955,-379.586C180.91,-390.601 213.343,-408.145 242,-422 249.251,-425.506 257.111,-429.089 264.611,-432.408"/>
<polygon fill="midnightblue" stroke="midnightblue" points="263.281,-435.646 273.846,-436.444 266.085,-429.232 263.281,-435.646"/>
</g>
<!-- Node37 -->
<g id="node78" class="node"><title>Node37</title>
<a xlink:href="$gateway_8c.html#a7ffd8cbca03f89f54f88c9536c3c1672" xlink:title="setup_iptables">
<polygon fill="white" stroke="black" points="256,-358.5 256,-379.5 342,-379.5 342,-358.5 256,-358.5"/>
<text text-anchor="middle" x="299" y="-366.5" font-family="FreeSans" font-size="10.00">setup_iptables</text>
</a>
</g>
<!-- Node32&#45;&gt;Node37 -->
<g id="edge82" class="edge"><title>Node32&#45;&gt;Node37</title>
<path fill="none" stroke="midnightblue" d="M182.024,-369C201.298,-369 224.684,-369 245.465,-369"/>
<polygon fill="midnightblue" stroke="midnightblue" points="245.742,-372.5 255.742,-369 245.742,-365.5 245.742,-372.5"/>
</g>
<!-- Node39 -->
<g id="node82" class="node"><title>Node39</title>
<a xlink:href="$tunnel_8c.html#af821fe8c84ca846361ffe2d27a39efb0" xlink:title="tunOpen">
<polygon fill="white" stroke="black" points="270,-318.5 270,-339.5 328,-339.5 328,-318.5 270,-318.5"/>
<text text-anchor="middle" x="299" y="-326.5" font-family="FreeSans" font-size="10.00">tunOpen</text>
</a>
</g>
<!-- Node32&#45;&gt;Node39 -->
<g id="edge86" class="edge"><title>Node32&#45;&gt;Node39</title>
<path fill="none" stroke="midnightblue" d="M182.024,-358.803C206.031,-352.686 236.417,-344.945 260.202,-338.885"/>
<polygon fill="midnightblue" stroke="midnightblue" points="261.127,-342.261 269.954,-336.4 259.399,-335.478 261.127,-342.261"/>
</g>
<!-- Node41 -->
<g id="node86" class="node"><title>Node41</title>
<a xlink:href="$setup_8c.html#ab7f7f98d02b4887e8cea3de8ff91ec1e" xlink:title="tunReceive">
<polygon fill="white" stroke="black" points="264.5,-118.5 264.5,-139.5 333.5,-139.5 333.5,-118.5 264.5,-118.5"/>
<text text-anchor="middle" x="299" y="-126.5" font-family="FreeSans" font-size="10.00">tunReceive</text>
</a>
</g>
<!-- Node32&#45;&gt;Node41 -->
<g id="edge90" class="edge"><title>Node32&#45;&gt;Node41</title>
<path fill="none" stroke="midnightblue" d="M182.205,-362.917C190.965,-359.948 199.534,-355.54 206,-349 245.147,-309.403 220.073,-280.182 242,-229 254.579,-199.639 273.672,-167.957 286.24,-148.299"/>
<polygon fill="midnightblue" stroke="midnightblue" points="289.326,-149.973 291.829,-139.678 283.452,-146.165 289.326,-149.973"/>
</g>
<!-- Node49 -->
<g id="node104" class="node"><title>Node49</title>
<a xlink:href="$tunnel_8c.html#af1a0ade13ffc2584097127a395fd7ad5" xlink:title="tunSetup">
<polygon fill="white" stroke="black" points="268.5,-238.5 268.5,-259.5 329.5,-259.5 329.5,-238.5 268.5,-238.5"/>
<text text-anchor="middle" x="299" y="-246.5" font-family="FreeSans" font-size="10.00">tunSetup</text>
</a>
</g>
<!-- Node32&#45;&gt;Node49 -->
<g id="edge110" class="edge"><title>Node32&#45;&gt;Node49</title>
<path fill="none" stroke="midnightblue" d="M182.276,-362.062C190.831,-359.126 199.293,-354.947 206,-349 235.173,-323.132 213.278,-295.368 242,-269 246.816,-264.578 252.667,-261.124 258.763,-258.429"/>
<polygon fill="midnightblue" stroke="midnightblue" points="260.307,-261.587 268.431,-254.787 257.839,-255.037 260.307,-261.587"/>
</g>
<!-- Node34 -->
<g id="node71" class="node"><title>Node34</title>
<a xlink:href="$glue_8c.html#a938783fd9096adb20cd7de23e7990992" xlink:title="_fdglue_t_listen">
<polygon fill="white" stroke="black" points="409.5,-238.5 409.5,-259.5 500.5,-259.5 500.5,-238.5 409.5,-238.5"/>
<text text-anchor="middle" x="455" y="-246.5" font-family="FreeSans" font-size="10.00">_fdglue_t_listen</text>
</a>
</g>
<!-- Node33&#45;&gt;Node34 -->
<g id="edge74" class="edge"><title>Node33&#45;&gt;Node34</title>
<path fill="none" stroke="midnightblue" d="M322.018,-283.098C343.531,-277.582 376.397,-269.154 404.073,-262.058"/>
<polygon fill="midnightblue" stroke="midnightblue" points="405.186,-265.386 414.003,-259.512 403.447,-258.605 405.186,-265.386"/>
</g>
<!-- Node35 -->
<g id="node73" class="node"><title>Node35</title>
<a xlink:href="$glue_8c.html#afa53f10c3b36cd8397dd16ba3c26ca9b" xlink:title="_fdglue_t_setHandler">
<polygon fill="white" stroke="black" points="396,-278.5 396,-299.5 514,-299.5 514,-278.5 396,-278.5"/>
<text text-anchor="middle" x="455" y="-286.5" font-family="FreeSans" font-size="10.00">_fdglue_t_setHandler</text>
</a>
</g>
<!-- Node33&#45;&gt;Node35 -->
<g id="edge76" class="edge"><title>Node33&#45;&gt;Node35</title>
<path fill="none" stroke="midnightblue" d="M322.018,-289C338.925,-289 362.844,-289 385.744,-289"/>
<polygon fill="midnightblue" stroke="midnightblue" points="385.818,-292.5 395.818,-289 385.818,-285.5 385.818,-292.5"/>
</g>
<!-- Node38 -->
<g id="node80" class="node"><title>Node38</title>
<a xlink:href="$setup_8c.html#a4cec60e56f4d3c2a3cd2f93964e5d6e5" xlink:title="callScript">
<polygon fill="white" stroke="black" points="425,-358.5 425,-379.5 485,-379.5 485,-358.5 425,-358.5"/>
<text text-anchor="middle" x="455" y="-366.5" font-family="FreeSans" font-size="10.00">callScript</text>
</a>
</g>
<!-- Node37&#45;&gt;Node38 -->
<g id="edge84" class="edge"><title>Node37&#45;&gt;Node38</title>
<path fill="none" stroke="midnightblue" d="M342.041,-369C364.774,-369 392.504,-369 414.799,-369"/>
<polygon fill="midnightblue" stroke="midnightblue" points="414.942,-372.5 424.942,-369 414.942,-365.5 414.942,-372.5"/>
</g>
<!-- Node40 -->
<g id="node84" class="node"><title>Node40</title>
<a xlink:href="$tunnel_8c.html#aa19db0493e5701447618cd3fd05d579c" xlink:title="set_fd">
<polygon fill="white" stroke="black" points="432,-318.5 432,-339.5 478,-339.5 478,-318.5 432,-318.5"/>
<text text-anchor="middle" x="455" y="-326.5" font-family="FreeSans" font-size="10.00">set_fd</text>
</a>
</g>
<!-- Node39&#45;&gt;Node40 -->
<g id="edge88" class="edge"><title>Node39&#45;&gt;Node40</title>
<path fill="none" stroke="midnightblue" d="M328.342,-329C354.952,-329 394.14,-329 421.867,-329"/>
<polygon fill="midnightblue" stroke="midnightblue" points="421.882,-332.5 431.882,-329 421.882,-325.5 421.882,-332.5"/>
</g>
<!-- Node41&#45;&gt;Node23 -->
<g id="edge92" class="edge"><title>Node41&#45;&gt;Node23</title>
<path fill="none" stroke="midnightblue" d="M310.503,-118.376C327.046,-103.897 359.192,-78.6647 392,-69 524.413,-29.993 601.512,-12.2804 700,-109 742.439,-150.677 766.062,-339.102 772.896,-402.279"/>
<polygon fill="midnightblue" stroke="midnightblue" points="769.418,-402.667 773.946,-412.245 776.379,-401.934 769.418,-402.667"/>
</g>
<!-- Node42 -->
<g id="node89" class="node"><title>Node42</title>
<a xlink:href="$chunker_8c.html#a02c1678de20980ea24185d88783ce301" xlink:title="genPacket">
<polygon fill="white" stroke="black" points="421.5,-0.5 421.5,-21.5 488.5,-21.5 488.5,-0.5 421.5,-0.5"/>
<text text-anchor="middle" x="455" y="-8.5" font-family="FreeSans" font-size="10.00">genPacket</text>
</a>
</g>
<!-- Node41&#45;&gt;Node42 -->
<g id="edge94" class="edge"><title>Node41&#45;&gt;Node42</title>
<path fill="none" stroke="midnightblue" d="M307.128,-118.395C322.08,-99.5171 355.749,-59.8328 392,-36 398.152,-31.9558 405.059,-28.3952 411.985,-25.3233"/>
<polygon fill="midnightblue" stroke="midnightblue" points="413.472,-28.4961 421.373,-21.4378 410.795,-22.0282 413.472,-28.4961"/>
</g>
<!-- Node44 -->
<g id="node93" class="node"><title>Node44</title>
<a xlink:href="$chunker_8c.html#af5784985909270b0a14683857b3f754b" xlink:title="neededChunks">
<polygon fill="white" stroke="black" points="411,-198.5 411,-219.5 499,-219.5 499,-198.5 411,-198.5"/>
<text text-anchor="middle" x="455" y="-206.5" font-family="FreeSans" font-size="10.00">neededChunks</text>
</a>
</g>
<!-- Node41&#45;&gt;Node44 -->
<g id="edge98" class="edge"><title>Node41&#45;&gt;Node44</title>
<path fill="none" stroke="midnightblue" d="M312.811,-139.592C330.397,-152.674 362.102,-174.918 392,-189 396.618,-191.175 401.534,-193.198 406.504,-195.057"/>
<polygon fill="midnightblue" stroke="midnightblue" points="405.47,-198.403 416.065,-198.423 407.795,-191.801 405.47,-198.403"/>
</g>
<!-- Node45 -->
<g id="node95" class="node"><title>Node45</title>
<a xlink:href="$compress_8c.html#a5a0c4e574903f37697a0bb21c2f9bae6" xlink:title="payloadCompress">
<polygon fill="white" stroke="black" points="403.5,-118.5 403.5,-139.5 506.5,-139.5 506.5,-118.5 403.5,-118.5"/>
<text text-anchor="middle" x="455" y="-126.5" font-family="FreeSans" font-size="10.00">payloadCompress</text>
</a>
</g>
<!-- Node41&#45;&gt;Node45 -->
<g id="edge100" class="edge"><title>Node41&#45;&gt;Node45</title>
<path fill="none" stroke="midnightblue" d="M333.621,-129C351.13,-129 372.913,-129 393.174,-129"/>
<polygon fill="midnightblue" stroke="midnightblue" points="393.285,-132.5 403.284,-129 393.284,-125.5 393.285,-132.5"/>
</g>
<!-- Node47 -->
<g id="node99" class="node"><title>Node47</title>
<a xlink:href="$compress_8c.html#aca805b3579cd9acd5a627f390c30b09e" xlink:title="printGained">
<polygon fill="white" stroke="black" points="419,-78.5 419,-99.5 491,-99.5 491,-78.5 419,-78.5"/>
<text text-anchor="middle" x="455" y="-86.5" font-family="FreeSans" font-size="10.00">printGained</text>
</a>
</g>
<!-- Node41&#45;&gt;Node47 -->
<g id="edge104" class="edge"><title>Node41&#45;&gt;Node47</title>
<path fill="none" stroke="midnightblue" d="M333.621,-120.123C355.771,-114.443 384.762,-107.01 408.857,-100.832"/>
<polygon fill="midnightblue" stroke="midnightblue" points="410.032,-104.144 418.849,-98.2695 408.293,-97.363 410.032,-104.144"/>
</g>
<!-- Node48 -->
<g id="node101" class="node"><title>Node48</title>
<a xlink:href="$tunnel_8c.html#aa11cdb338b5f8505c10fb5ed868efac3" xlink:title="tunRead">
<polygon fill="white" stroke="black" points="427,-158.5 427,-179.5 483,-179.5 483,-158.5 427,-158.5"/>
<text text-anchor="middle" x="455" y="-166.5" font-family="FreeSans" font-size="10.00">tunRead</text>
</a>
</g>
<!-- Node41&#45;&gt;Node48 -->
<g id="edge106" class="edge"><title>Node41&#45;&gt;Node48</title>
<path fill="none" stroke="midnightblue" d="M333.621,-137.877C358.236,-144.189 391.302,-152.667 416.705,-159.181"/>
<polygon fill="midnightblue" stroke="midnightblue" points="416.171,-162.657 426.727,-161.751 417.91,-155.876 416.171,-162.657"/>
</g>
<!-- Node43 -->
<g id="node91" class="node"><title>Node43</title>
<a xlink:href="$chunker_8c.html#a8ed734f3a992bc14bdfd1ddd2f3dda6c" xlink:title="genIpv6Header">
<polygon fill="white" stroke="black" points="582.5,-0.5 582.5,-21.5 671.5,-21.5 671.5,-0.5 582.5,-0.5"/>
<text text-anchor="middle" x="627" y="-8.5" font-family="FreeSans" font-size="10.00">genIpv6Header</text>
</a>
</g>
<!-- Node42&#45;&gt;Node43 -->
<g id="edge96" class="edge"><title>Node42&#45;&gt;Node43</title>
<path fill="none" stroke="midnightblue" d="M488.572,-11C512.324,-11 544.706,-11 572.178,-11"/>
<polygon fill="midnightblue" stroke="midnightblue" points="572.438,-14.5001 582.438,-11 572.438,-7.5001 572.438,-14.5001"/>
</g>
<!-- Node46 -->
<g id="node97" class="node"><title>Node46</title>
<a xlink:href="$compress_8c.html#aef06e052a9885333212ce019e7ac9c05" xlink:title="_setup_zstream">
<polygon fill="white" stroke="red" points="580,-118.5 580,-139.5 674,-139.5 674,-118.5 580,-118.5"/>
<text text-anchor="middle" x="627" y="-126.5" font-family="FreeSans" font-size="10.00">_setup_zstream</text>
</a>
</g>
<!-- Node45&#45;&gt;Node46 -->
<g id="edge102" class="edge"><title>Node45&#45;&gt;Node46</title>
<path fill="none" stroke="midnightblue" d="M506.606,-129C526.499,-129 549.331,-129 569.728,-129"/>
<polygon fill="midnightblue" stroke="midnightblue" points="569.831,-132.5 579.831,-129 569.831,-125.5 569.831,-132.5"/>
</g>
<!-- Node48&#45;&gt;Node13 -->
<g id="edge108" class="edge"><title>Node48&#45;&gt;Node13</title>
<path fill="none" stroke="midnightblue" d="M483.109,-172.93C494.959,-175.767 508.238,-180.64 518,-189 581.503,-243.383 611.797,-343.632 622.404,-387.046"/>
<polygon fill="midnightblue" stroke="midnightblue" points="619.052,-388.082 624.735,-397.024 625.868,-386.49 619.052,-388.082"/>
</g>
</g>
</svg>
